<mxfile host="app.diagrams.net" modified="2023-11-28T06:05:05.811Z" agent="Mozilla/5.0 (Windows NT 10.0; Win64; x64; rv:120.0) Gecko/20100101 Firefox/120.0" etag="VhWCZ40csL-K_TpcK10J" version="22.1.4" type="github">
  <diagram name="Page-1" id="4aeB6z92RJJiPWzYteNc">
    <mxGraphModel dx="1434" dy="726" grid="1" gridSize="10" guides="1" tooltips="1" connect="1" arrows="1" fold="1" page="1" pageScale="1" pageWidth="827" pageHeight="1169" math="0" shadow="0">
      <root>
        <mxCell id="0" />
        <mxCell id="1" parent="0" />
        <mxCell id="q0QJmNpemkyH0PjdIDK_-47" value="" style="rounded=0;whiteSpace=wrap;html=1;fillColor=none;strokeColor=#b85450;strokeWidth=2;" parent="1" vertex="1">
          <mxGeometry x="40" y="40" width="760" height="340" as="geometry" />
        </mxCell>
        <mxCell id="q0QJmNpemkyH0PjdIDK_-78" value="" style="rounded=0;whiteSpace=wrap;html=1;fillColor=none;strokeColor=#9673a6;strokeWidth=2;" parent="1" vertex="1">
          <mxGeometry x="43.11" y="153.05" width="557.78" height="200" as="geometry" />
        </mxCell>
        <mxCell id="q0QJmNpemkyH0PjdIDK_-33" value="" style="rounded=0;whiteSpace=wrap;html=1;fillColor=none;strokeColor=#82b366;strokeWidth=2;" parent="1" vertex="1">
          <mxGeometry x="36" y="440" width="570" height="310" as="geometry" />
        </mxCell>
        <mxCell id="q0QJmNpemkyH0PjdIDK_-76" value="" style="rounded=0;whiteSpace=wrap;html=1;fillColor=none;strokeColor=#9673a6;strokeWidth=2;fontStyle=1" parent="1" vertex="1">
          <mxGeometry x="42.11" y="540" width="557.78" height="200" as="geometry" />
        </mxCell>
        <mxCell id="vtf_jzdpvrJgs_FeVq1o-40" value="" style="shape=flexArrow;endArrow=classic;html=1;rounded=0;fillColor=#f8cecc;strokeColor=#b85450;" parent="1" edge="1">
          <mxGeometry width="50" height="50" relative="1" as="geometry">
            <mxPoint x="36" y="824" as="sourcePoint" />
            <mxPoint x="96" y="824" as="targetPoint" />
          </mxGeometry>
        </mxCell>
        <mxCell id="vtf_jzdpvrJgs_FeVq1o-41" value="" style="shape=flexArrow;endArrow=classic;html=1;rounded=0;fillColor=#dae8fc;strokeColor=#6c8ebf;entryX=0;entryY=0.5;entryDx=0;entryDy=0;" parent="1" edge="1">
          <mxGeometry width="50" height="50" relative="1" as="geometry">
            <mxPoint x="36" y="863" as="sourcePoint" />
            <mxPoint x="96" y="863" as="targetPoint" />
            <Array as="points">
              <mxPoint x="41" y="863" />
            </Array>
          </mxGeometry>
        </mxCell>
        <mxCell id="vtf_jzdpvrJgs_FeVq1o-42" value="Données confidentielles (crédentiels...)" style="text;html=1;strokeColor=none;fillColor=none;align=center;verticalAlign=middle;whiteSpace=wrap;rounded=0;" parent="1" vertex="1">
          <mxGeometry x="106" y="849" width="170" height="30" as="geometry" />
        </mxCell>
        <mxCell id="vtf_jzdpvrJgs_FeVq1o-43" value="Données &quot;lourdes&quot; (images, vidéos...)" style="text;html=1;strokeColor=none;fillColor=none;align=center;verticalAlign=middle;whiteSpace=wrap;rounded=0;" parent="1" vertex="1">
          <mxGeometry x="105" y="810" width="150" height="30" as="geometry" />
        </mxCell>
        <mxCell id="vtf_jzdpvrJgs_FeVq1o-70" value="Données structurelles" style="text;whiteSpace=wrap;html=1;" parent="1" vertex="1">
          <mxGeometry x="125" y="890" width="130" height="20" as="geometry" />
        </mxCell>
        <mxCell id="vtf_jzdpvrJgs_FeVq1o-71" value="" style="shape=flexArrow;endArrow=classic;html=1;rounded=0;fillColor=#d5e8d4;strokeColor=#82b366;entryX=0;entryY=0.5;entryDx=0;entryDy=0;" parent="1" edge="1">
          <mxGeometry width="50" height="50" relative="1" as="geometry">
            <mxPoint x="36" y="903.5" as="sourcePoint" />
            <mxPoint x="96" y="903.5" as="targetPoint" />
            <Array as="points">
              <mxPoint x="41" y="903.5" />
            </Array>
          </mxGeometry>
        </mxCell>
        <mxCell id="q0QJmNpemkyH0PjdIDK_-35" value="Front end sites atoms" style="rounded=0;whiteSpace=wrap;html=1;" parent="1" vertex="1">
          <mxGeometry x="158.32999999999998" y="625.2600000000001" width="140" height="80" as="geometry" />
        </mxCell>
        <mxCell id="q0QJmNpemkyH0PjdIDK_-36" value="Back end sites atoms" style="rounded=0;whiteSpace=wrap;html=1;" parent="1" vertex="1">
          <mxGeometry x="387.00000000000006" y="625.2600000000001" width="140" height="80" as="geometry" />
        </mxCell>
        <mxCell id="q0QJmNpemkyH0PjdIDK_-42" value="" style="endArrow=classic;html=1;rounded=0;exitX=1;exitY=0.5;exitDx=0;exitDy=0;entryX=0.5;entryY=0;entryDx=0;entryDy=0;" parent="1" source="q0QJmNpemkyH0PjdIDK_-35" target="q0QJmNpemkyH0PjdIDK_-44" edge="1">
          <mxGeometry width="50" height="50" relative="1" as="geometry">
            <mxPoint x="368.33000000000004" y="855.2600000000001" as="sourcePoint" />
            <mxPoint x="418.33000000000004" y="805.2600000000001" as="targetPoint" />
            <Array as="points">
              <mxPoint x="338.33000000000004" y="665.2600000000001" />
            </Array>
          </mxGeometry>
        </mxCell>
        <mxCell id="q0QJmNpemkyH0PjdIDK_-43" value="" style="endArrow=classic;html=1;rounded=0;entryX=0.5;entryY=1;entryDx=0;entryDy=0;exitX=0;exitY=0.5;exitDx=0;exitDy=0;" parent="1" source="q0QJmNpemkyH0PjdIDK_-36" target="q0QJmNpemkyH0PjdIDK_-44" edge="1">
          <mxGeometry width="50" height="50" relative="1" as="geometry">
            <mxPoint x="368.33000000000004" y="855.2600000000001" as="sourcePoint" />
            <mxPoint x="418.33000000000004" y="805.2600000000001" as="targetPoint" />
            <Array as="points">
              <mxPoint x="338.33000000000004" y="665.2600000000001" />
            </Array>
          </mxGeometry>
        </mxCell>
        <mxCell id="q0QJmNpemkyH0PjdIDK_-44" value="Templates" style="rounded=0;whiteSpace=wrap;html=1;" parent="1" vertex="1">
          <mxGeometry x="278.33000000000004" y="549.8299999999999" width="120" height="60" as="geometry" />
        </mxCell>
        <mxCell id="q0QJmNpemkyH0PjdIDK_-45" value="WebSonic" style="text;html=1;strokeColor=#82b366;fillColor=#d5e8d4;align=center;verticalAlign=middle;whiteSpace=wrap;rounded=0;strokeWidth=2;" parent="1" vertex="1">
          <mxGeometry x="36" y="440" width="120" height="30" as="geometry" />
        </mxCell>
        <mxCell id="q0QJmNpemkyH0PjdIDK_-48" value="Templates" style="rounded=0;whiteSpace=wrap;html=1;" parent="1" vertex="1">
          <mxGeometry x="282" y="275" width="120" height="60" as="geometry" />
        </mxCell>
        <mxCell id="q0QJmNpemkyH0PjdIDK_-49" value="Client " style="text;html=1;strokeColor=#b85450;fillColor=#f8cecc;align=center;verticalAlign=middle;whiteSpace=wrap;rounded=0;strokeWidth=2;" parent="1" vertex="1">
          <mxGeometry x="40" y="40" width="100" height="30" as="geometry" />
        </mxCell>
        <mxCell id="q0QJmNpemkyH0PjdIDK_-50" value="Espace disque" style="rounded=0;whiteSpace=wrap;html=1;" parent="1" vertex="1">
          <mxGeometry x="172" y="55" width="120" height="60" as="geometry" />
        </mxCell>
        <mxCell id="q0QJmNpemkyH0PjdIDK_-51" value="Base de données" style="shape=cylinder3;whiteSpace=wrap;html=1;boundedLbl=1;backgroundOutline=1;size=15;" parent="1" vertex="1">
          <mxGeometry x="402" y="45" width="110" height="80" as="geometry" />
        </mxCell>
        <mxCell id="q0QJmNpemkyH0PjdIDK_-52" value="Front end sites atoms" style="rounded=0;whiteSpace=wrap;html=1;" parent="1" vertex="1">
          <mxGeometry x="160" y="192" width="140" height="80" as="geometry" />
        </mxCell>
        <mxCell id="q0QJmNpemkyH0PjdIDK_-53" value="Back end sites atoms" style="rounded=0;whiteSpace=wrap;html=1;" parent="1" vertex="1">
          <mxGeometry x="386" y="192" width="140" height="80" as="geometry" />
        </mxCell>
        <mxCell id="q0QJmNpemkyH0PjdIDK_-54" value="" style="endArrow=classic;html=1;rounded=0;exitX=0.5;exitY=1;exitDx=0;exitDy=0;entryX=0.5;entryY=0;entryDx=0;entryDy=0;" parent="1" source="q0QJmNpemkyH0PjdIDK_-50" target="q0QJmNpemkyH0PjdIDK_-52" edge="1">
          <mxGeometry width="50" height="50" relative="1" as="geometry">
            <mxPoint x="332" y="352" as="sourcePoint" />
            <mxPoint x="382" y="302" as="targetPoint" />
          </mxGeometry>
        </mxCell>
        <mxCell id="q0QJmNpemkyH0PjdIDK_-55" value="" style="shape=flexArrow;endArrow=classic;html=1;rounded=0;fillColor=#f8cecc;strokeColor=#b85450;exitX=0.5;exitY=1;exitDx=0;exitDy=0;" parent="1" source="q0QJmNpemkyH0PjdIDK_-50" edge="1">
          <mxGeometry width="50" height="50" relative="1" as="geometry">
            <mxPoint x="232" y="52" as="sourcePoint" />
            <mxPoint x="232" y="192" as="targetPoint" />
          </mxGeometry>
        </mxCell>
        <mxCell id="q0QJmNpemkyH0PjdIDK_-63" value="" style="endArrow=classic;html=1;rounded=0;exitX=1;exitY=0.5;exitDx=0;exitDy=0;entryX=0.5;entryY=0;entryDx=0;entryDy=0;" parent="1" source="q0QJmNpemkyH0PjdIDK_-52" target="q0QJmNpemkyH0PjdIDK_-48" edge="1">
          <mxGeometry width="50" height="50" relative="1" as="geometry">
            <mxPoint x="372" y="422" as="sourcePoint" />
            <mxPoint x="422" y="372" as="targetPoint" />
            <Array as="points">
              <mxPoint x="342" y="232" />
            </Array>
          </mxGeometry>
        </mxCell>
        <mxCell id="q0QJmNpemkyH0PjdIDK_-64" value="" style="endArrow=classic;html=1;rounded=0;entryX=0.5;entryY=0;entryDx=0;entryDy=0;exitX=0;exitY=0.5;exitDx=0;exitDy=0;" parent="1" source="q0QJmNpemkyH0PjdIDK_-53" target="q0QJmNpemkyH0PjdIDK_-48" edge="1">
          <mxGeometry width="50" height="50" relative="1" as="geometry">
            <mxPoint x="372" y="422" as="sourcePoint" />
            <mxPoint x="422" y="372" as="targetPoint" />
            <Array as="points">
              <mxPoint x="342" y="232" />
            </Array>
          </mxGeometry>
        </mxCell>
        <mxCell id="q0QJmNpemkyH0PjdIDK_-65" value="" style="shape=flexArrow;endArrow=classic;html=1;rounded=0;fillColor=#dae8fc;strokeColor=#6c8ebf;exitX=0.5;exitY=1;exitDx=0;exitDy=0;exitPerimeter=0;" parent="1" source="q0QJmNpemkyH0PjdIDK_-51" edge="1">
          <mxGeometry width="50" height="50" relative="1" as="geometry">
            <mxPoint x="482" y="82" as="sourcePoint" />
            <mxPoint x="456" y="192" as="targetPoint" />
          </mxGeometry>
        </mxCell>
        <mxCell id="q0QJmNpemkyH0PjdIDK_-67" value="" style="shape=flexArrow;endArrow=block;html=1;rounded=0;fillColor=#1ba1e2;strokeColor=#006EAF;startSize=6;startArrow=block;endFill=0;entryX=0.5;entryY=1;entryDx=0;entryDy=0;exitX=0.5;exitY=0;exitDx=0;exitDy=0;" parent="1" source="q0QJmNpemkyH0PjdIDK_-76" target="q0QJmNpemkyH0PjdIDK_-78" edge="1">
          <mxGeometry width="50" height="50" relative="1" as="geometry">
            <mxPoint x="322" y="400" as="sourcePoint" />
            <mxPoint x="324.61" y="330" as="targetPoint" />
          </mxGeometry>
        </mxCell>
        <mxCell id="q0QJmNpemkyH0PjdIDK_-69" value="Base de données" style="shape=cylinder3;whiteSpace=wrap;html=1;boundedLbl=1;backgroundOutline=1;size=15;" parent="1" vertex="1">
          <mxGeometry x="402" y="450" width="110" height="80" as="geometry" />
        </mxCell>
        <mxCell id="q0QJmNpemkyH0PjdIDK_-72" value="" style="shape=flexArrow;endArrow=classic;html=1;rounded=0;fillColor=#d5e8d4;strokeColor=#82b366;exitX=0.5;exitY=1;exitDx=0;exitDy=0;exitPerimeter=0;entryX=0.5;entryY=0;entryDx=0;entryDy=0;" parent="1" source="q0QJmNpemkyH0PjdIDK_-69" target="q0QJmNpemkyH0PjdIDK_-36" edge="1">
          <mxGeometry width="50" height="50" relative="1" as="geometry">
            <mxPoint x="414.2800000000001" y="754.3499999999999" as="sourcePoint" />
            <mxPoint x="365.89" y="790" as="targetPoint" />
          </mxGeometry>
        </mxCell>
        <mxCell id="q0QJmNpemkyH0PjdIDK_-73" value="" style="shape=flexArrow;endArrow=classic;html=1;rounded=0;fillColor=#d5e8d4;strokeColor=#82b366;exitX=0;exitY=0.5;exitDx=0;exitDy=0;exitPerimeter=0;" parent="1" source="q0QJmNpemkyH0PjdIDK_-69" target="q0QJmNpemkyH0PjdIDK_-35" edge="1">
          <mxGeometry width="50" height="50" relative="1" as="geometry">
            <mxPoint x="277" y="674.43" as="sourcePoint" />
            <mxPoint x="276" y="640" as="targetPoint" />
            <Array as="points">
              <mxPoint x="230" y="490" />
            </Array>
          </mxGeometry>
        </mxCell>
        <mxCell id="q0QJmNpemkyH0PjdIDK_-74" value="" style="shape=flexArrow;endArrow=classic;html=1;rounded=0;fillColor=#1ba1e2;strokeColor=#006EAF;entryX=0;entryY=0.5;entryDx=0;entryDy=0;" parent="1" edge="1">
          <mxGeometry width="50" height="50" relative="1" as="geometry">
            <mxPoint x="308" y="824.5" as="sourcePoint" />
            <mxPoint x="368" y="824.5" as="targetPoint" />
            <Array as="points">
              <mxPoint x="313" y="824.5" />
            </Array>
          </mxGeometry>
        </mxCell>
        <mxCell id="q0QJmNpemkyH0PjdIDK_-75" value="Mise à jour" style="text;html=1;strokeColor=none;fillColor=none;align=center;verticalAlign=middle;whiteSpace=wrap;rounded=0;" parent="1" vertex="1">
          <mxGeometry x="382" y="810" width="88" height="30" as="geometry" />
        </mxCell>
        <mxCell id="q0QJmNpemkyH0PjdIDK_-77" value="&lt;div align=&quot;center&quot;&gt;Serveur web&lt;/div&gt;" style="text;whiteSpace=wrap;html=1;fillColor=#e1d5e7;strokeColor=#9673a6;align=center;fontStyle=0" parent="1" vertex="1">
          <mxGeometry x="42.78" y="540" width="93.11" height="30" as="geometry" />
        </mxCell>
        <mxCell id="q0QJmNpemkyH0PjdIDK_-80" value="&lt;div align=&quot;center&quot;&gt;Serveur web&lt;/div&gt;" style="text;whiteSpace=wrap;html=1;fillColor=#e1d5e7;strokeColor=#9673a6;align=center;" parent="1" vertex="1">
          <mxGeometry x="43.11" y="321.05" width="93.11" height="30" as="geometry" />
        </mxCell>
        <mxCell id="YVachwZPVYHzyHaI7HRf-1" value="" style="shape=flexArrow;endArrow=classic;html=1;rounded=0;fillColor=#d5e8d4;strokeColor=#82b366;exitX=0.5;exitY=0;exitDx=0;exitDy=0;exitPerimeter=0;entryX=0.5;entryY=1;entryDx=0;entryDy=0;" parent="1" source="q0QJmNpemkyH0PjdIDK_-69" target="q0QJmNpemkyH0PjdIDK_-53" edge="1">
          <mxGeometry width="50" height="50" relative="1" as="geometry">
            <mxPoint x="467" y="540" as="sourcePoint" />
            <mxPoint x="467" y="635" as="targetPoint" />
          </mxGeometry>
        </mxCell>
        <mxCell id="YVachwZPVYHzyHaI7HRf-2" value="" style="shape=flexArrow;endArrow=classic;html=1;rounded=0;fillColor=#d5e8d4;strokeColor=#82b366;entryX=0.5;entryY=1;entryDx=0;entryDy=0;" parent="1" target="q0QJmNpemkyH0PjdIDK_-52" edge="1">
          <mxGeometry width="50" height="50" relative="1" as="geometry">
            <mxPoint x="400" y="490" as="sourcePoint" />
            <mxPoint x="239" y="635" as="targetPoint" />
            <Array as="points">
              <mxPoint x="230" y="490" />
            </Array>
          </mxGeometry>
        </mxCell>
        <mxCell id="YVachwZPVYHzyHaI7HRf-4" value="" style="endArrow=classic;html=1;rounded=0;exitX=1;exitY=0.75;exitDx=0;exitDy=0;" parent="1" source="q0QJmNpemkyH0PjdIDK_-78" edge="1">
          <mxGeometry width="50" height="50" relative="1" as="geometry">
            <mxPoint x="600.8899999999999" y="279.04999999999995" as="sourcePoint" />
            <mxPoint x="660" y="303" as="targetPoint" />
          </mxGeometry>
        </mxCell>
        <mxCell id="YVachwZPVYHzyHaI7HRf-5" value="Site web" style="rounded=0;whiteSpace=wrap;html=1;" parent="1" vertex="1">
          <mxGeometry x="660" y="275" width="120" height="60" as="geometry" />
        </mxCell>
        <mxCell id="YVachwZPVYHzyHaI7HRf-6" value="Utilisateur final" style="shape=umlActor;verticalLabelPosition=bottom;verticalAlign=top;html=1;outlineConnect=0;" parent="1" vertex="1">
          <mxGeometry x="705" y="410" width="30" height="60" as="geometry" />
        </mxCell>
        <mxCell id="YVachwZPVYHzyHaI7HRf-9" value="" style="endArrow=classic;html=1;rounded=0;entryX=0.5;entryY=1;entryDx=0;entryDy=0;" parent="1" target="YVachwZPVYHzyHaI7HRf-5" edge="1">
          <mxGeometry width="50" height="50" relative="1" as="geometry">
            <mxPoint x="720" y="400" as="sourcePoint" />
            <mxPoint x="440" y="380" as="targetPoint" />
          </mxGeometry>
        </mxCell>
      </root>
    </mxGraphModel>
  </diagram>
</mxfile>
